<?xml version="1.0" encoding="UTF-8"?>
<svg xmlns="http://www.w3.org/2000/svg" xmlns:xlink="http://www.w3.org/1999/xlink"
     width="760" height="320" viewBox="0 0 760 320" version="1.1"
     role="img" aria-labelledby="logo-title logo-desc"
     data-geometry-source="design_system_05_logo_final.svg">
  <title id="logo-title">京张和鸣主标志（单色）</title>
  <desc id="logo-desc">单色版主标志。人字形展线、钟摆中轴和铁轨刻度沿用设计系统原几何，仅统一为单一深色。</desc>
  <metadata><![CDATA[
{
  "asset": "logo-mono.svg",
  "derivative": "reviewable standalone monochrome mark",
  "geometry_source": "C:/Users/liu/.zcode/workspace/default/output_images/design_system_05_logo_final.svg",
  "geometry_source_sha256": "60123df0202d525bdff94fc03369d87008d45f67e67afea40746f9cb0779a774",
  "geometry_source_element": "symbol#lr-mark",
  "geometry_change": "none; source coordinates are preserved; color is normalized only",
  "color": "#2A2824",
  "safe_clear_space": "1x = diameter of the pendulum node",
  "minimum_height": "24 mm",
  "prohibitions": ["stretch", "skew", "recolor", "detach or rearrange parts"],
  "status": "participant-created concept direction for PR and noncommercial community review only",
  "trademark_claim": false
}
  ]]></metadata>
  <defs>
    <!-- Same lr-mark coordinates as the source; all strokes/fills are one color. -->
    <symbol id="jingzhang-mark-mono" viewBox="0 0 400 400">
      <path d="M200 52L134 116L62 278 M200 52L266 116L338 278" fill="none" stroke="currentColor" stroke-width="18" stroke-linecap="round" stroke-linejoin="round"/>
      <path d="M200 66V256" fill="none" stroke="currentColor" stroke-width="16" stroke-linecap="round"/>
      <rect x="177" y="244" width="46" height="7" fill="currentColor"/>
      <rect x="194" y="251" width="12" height="12" fill="currentColor"/>
      <rect x="177" y="263" width="46" height="7" fill="currentColor"/>
      <circle cx="200" cy="52" r="16" fill="currentColor"/>
      <path d="M42 304H358" fill="none" stroke="currentColor" stroke-width="10"/>
      <path d="M42 304V286 M82 304V294 M122 304V294 M161 304V286 M200 304V294 M239 304V294 M278 304V286 M318 304V294 M358 304V286" fill="none" stroke="currentColor" stroke-width="8"/>
    </symbol>
  </defs>
  <g transform="translate(48 18) scale(.70)" color="#2A2824">
    <use href="#jingzhang-mark-mono" xlink:href="#jingzhang-mark-mono" width="400" height="400"/>
  </g>
  <g aria-label="wordmark">
    <text x="370" y="133" font-family="Noto Sans SC, Microsoft YaHei, SimHei, sans-serif" font-size="52" font-weight="700" letter-spacing="0" fill="#2A2824">京张和鸣</text>
    <text x="373" y="176" font-family="Helvetica Neue, Arial, sans-serif" font-size="17" letter-spacing="0" fill="#2A2824">THE JINGZHANG RESONANCE</text>
    <line x1="373" y1="202" x2="708" y2="202" stroke="#2A2824" stroke-width="2"/>
    <text x="373" y="234" font-family="Noto Sans SC, Microsoft YaHei, SimHei, sans-serif" font-size="14" letter-spacing="0" fill="#2A2824">单色使用 · 保持比例与留白</text>
  </g>
</svg>
